<mxfile host="Electron" modified="2023-06-16T14:18:06.243Z" agent="Mozilla/5.0 (Windows NT 10.0; Win64; x64) AppleWebKit/537.36 (KHTML, like Gecko) draw.io/21.2.8 Chrome/112.0.5615.165 Electron/24.2.0 Safari/537.36" etag="q-JoP1uKeOI1CzENmCLU" version="21.2.8" type="device">
  <diagram name="Seite-1" id="a-MWcvy5pLbd4H42ErWb">
    <mxGraphModel dx="918" dy="1869" grid="1" gridSize="10" guides="1" tooltips="1" connect="1" arrows="1" fold="1" page="1" pageScale="1" pageWidth="827" pageHeight="1169" math="0" shadow="0">
      <root>
        <mxCell id="0" />
        <mxCell id="1" parent="0" />
        <mxCell id="uQ55AVFSCv3QONQmOrzS-1" value="MeowMed&lt;br&gt;System" style="rounded=0;whiteSpace=wrap;html=1;verticalAlign=top;" vertex="1" parent="1">
          <mxGeometry x="570" y="-1140" width="800" height="470" as="geometry" />
        </mxCell>
        <mxCell id="uQ55AVFSCv3QONQmOrzS-2" value="MeoMed UI" style="rounded=1;whiteSpace=wrap;html=1;" vertex="1" parent="1">
          <mxGeometry x="600" y="-1090" width="730" height="60" as="geometry" />
        </mxCell>
        <mxCell id="uQ55AVFSCv3QONQmOrzS-3" value="Notification Service" style="rounded=1;whiteSpace=wrap;html=1;" vertex="1" parent="1">
          <mxGeometry x="905" y="-790" width="120" height="70" as="geometry" />
        </mxCell>
        <mxCell id="uQ55AVFSCv3QONQmOrzS-4" value="" style="edgeStyle=orthogonalEdgeStyle;rounded=0;orthogonalLoop=1;jettySize=auto;html=1;exitX=0.25;exitY=1;exitDx=0;exitDy=0;" edge="1" parent="1" source="uQ55AVFSCv3QONQmOrzS-2" target="uQ55AVFSCv3QONQmOrzS-7">
          <mxGeometry relative="1" as="geometry" />
        </mxCell>
        <mxCell id="uQ55AVFSCv3QONQmOrzS-5" value="Kunden&lt;br&gt;anlegen, updaten, lesen" style="edgeLabel;html=1;align=center;verticalAlign=middle;resizable=0;points=[];" vertex="1" connectable="0" parent="uQ55AVFSCv3QONQmOrzS-4">
          <mxGeometry x="-0.3924" y="-1" relative="1" as="geometry">
            <mxPoint x="-1" as="offset" />
          </mxGeometry>
        </mxCell>
        <mxCell id="uQ55AVFSCv3QONQmOrzS-6" value="KundeAngelegtEvent" style="edgeStyle=orthogonalEdgeStyle;rounded=0;orthogonalLoop=1;jettySize=auto;html=1;exitX=0;exitY=0.5;exitDx=0;exitDy=0;entryX=0.5;entryY=1;entryDx=0;entryDy=0;" edge="1" parent="1" source="uQ55AVFSCv3QONQmOrzS-3" target="uQ55AVFSCv3QONQmOrzS-7">
          <mxGeometry relative="1" as="geometry" />
        </mxCell>
        <mxCell id="uQ55AVFSCv3QONQmOrzS-7" value="Customer Service" style="rounded=1;whiteSpace=wrap;html=1;" vertex="1" parent="1">
          <mxGeometry x="600" y="-930" width="120" height="70" as="geometry" />
        </mxCell>
        <mxCell id="uQ55AVFSCv3QONQmOrzS-8" value="Verträge&lt;br&gt;anlegen, updaten, lesen" style="edgeStyle=orthogonalEdgeStyle;rounded=0;orthogonalLoop=1;jettySize=auto;html=1;" edge="1" parent="1" source="uQ55AVFSCv3QONQmOrzS-2" target="uQ55AVFSCv3QONQmOrzS-11">
          <mxGeometry relative="1" as="geometry" />
        </mxCell>
        <mxCell id="uQ55AVFSCv3QONQmOrzS-9" style="edgeStyle=orthogonalEdgeStyle;rounded=0;orthogonalLoop=1;jettySize=auto;html=1;exitX=0;exitY=0.5;exitDx=0;exitDy=0;entryX=1;entryY=0.5;entryDx=0;entryDy=0;" edge="1" parent="1" source="uQ55AVFSCv3QONQmOrzS-11" target="uQ55AVFSCv3QONQmOrzS-7">
          <mxGeometry relative="1" as="geometry" />
        </mxCell>
        <mxCell id="uQ55AVFSCv3QONQmOrzS-10" value="VertragAngelegtEvent" style="edgeStyle=orthogonalEdgeStyle;rounded=0;orthogonalLoop=1;jettySize=auto;html=1;exitX=0.5;exitY=0;exitDx=0;exitDy=0;entryX=0.5;entryY=1;entryDx=0;entryDy=0;" edge="1" parent="1" source="uQ55AVFSCv3QONQmOrzS-3" target="uQ55AVFSCv3QONQmOrzS-11">
          <mxGeometry relative="1" as="geometry" />
        </mxCell>
        <mxCell id="uQ55AVFSCv3QONQmOrzS-11" value="Policy Service" style="rounded=1;whiteSpace=wrap;html=1;" vertex="1" parent="1">
          <mxGeometry x="905" y="-930" width="120" height="70" as="geometry" />
        </mxCell>
        <mxCell id="uQ55AVFSCv3QONQmOrzS-12" value="Buchungsliste abfragen" style="edgeStyle=orthogonalEdgeStyle;rounded=0;orthogonalLoop=1;jettySize=auto;html=1;exitX=0.75;exitY=1;exitDx=0;exitDy=0;" edge="1" parent="1" source="uQ55AVFSCv3QONQmOrzS-2" target="uQ55AVFSCv3QONQmOrzS-15">
          <mxGeometry relative="1" as="geometry" />
        </mxCell>
        <mxCell id="uQ55AVFSCv3QONQmOrzS-13" value="Vertragsdaten" style="edgeStyle=orthogonalEdgeStyle;rounded=0;orthogonalLoop=1;jettySize=auto;html=1;exitX=0;exitY=0.5;exitDx=0;exitDy=0;entryX=1;entryY=0.5;entryDx=0;entryDy=0;" edge="1" parent="1" source="uQ55AVFSCv3QONQmOrzS-15" target="uQ55AVFSCv3QONQmOrzS-11">
          <mxGeometry relative="1" as="geometry" />
        </mxCell>
        <mxCell id="uQ55AVFSCv3QONQmOrzS-14" value="KundeAngelegtEvent" style="edgeStyle=orthogonalEdgeStyle;rounded=0;orthogonalLoop=1;jettySize=auto;html=1;exitX=0.75;exitY=1;exitDx=0;exitDy=0;entryX=0.25;entryY=1;entryDx=0;entryDy=0;" edge="1" parent="1" source="uQ55AVFSCv3QONQmOrzS-15" target="uQ55AVFSCv3QONQmOrzS-7">
          <mxGeometry relative="1" as="geometry">
            <Array as="points">
              <mxPoint x="1300" y="-700" />
              <mxPoint x="630" y="-700" />
            </Array>
          </mxGeometry>
        </mxCell>
        <mxCell id="uQ55AVFSCv3QONQmOrzS-15" value="Billing Service" style="rounded=1;whiteSpace=wrap;html=1;" vertex="1" parent="1">
          <mxGeometry x="1210" y="-930" width="120" height="70" as="geometry" />
        </mxCell>
        <mxCell id="uQ55AVFSCv3QONQmOrzS-16" value="MeowMed &lt;br&gt;System" style="rounded=0;whiteSpace=wrap;html=1;verticalAlign=top;" vertex="1" parent="1">
          <mxGeometry x="640" y="-610" width="690" height="400" as="geometry" />
        </mxCell>
        <mxCell id="uQ55AVFSCv3QONQmOrzS-17" value="MeowMed UI" style="rounded=0;whiteSpace=wrap;html=1;" vertex="1" parent="1">
          <mxGeometry x="730" y="-550" width="440" height="30" as="geometry" />
        </mxCell>
        <mxCell id="uQ55AVFSCv3QONQmOrzS-18" value="Notification Service" style="rounded=0;whiteSpace=wrap;html=1;" vertex="1" parent="1">
          <mxGeometry x="650" y="-400" width="70" height="30" as="geometry" />
        </mxCell>
        <mxCell id="uQ55AVFSCv3QONQmOrzS-19" value="Customer service" style="rounded=0;whiteSpace=wrap;html=1;" vertex="1" parent="1">
          <mxGeometry x="820" y="-415" width="70" height="60" as="geometry" />
        </mxCell>
        <mxCell id="uQ55AVFSCv3QONQmOrzS-20" value="Policy service" style="rounded=0;whiteSpace=wrap;html=1;" vertex="1" parent="1">
          <mxGeometry x="995" y="-415" width="70" height="60" as="geometry" />
        </mxCell>
        <mxCell id="uQ55AVFSCv3QONQmOrzS-21" value="" style="edgeStyle=orthogonalEdgeStyle;rounded=0;orthogonalLoop=1;jettySize=auto;html=1;" edge="1" parent="1" source="uQ55AVFSCv3QONQmOrzS-22" target="uQ55AVFSCv3QONQmOrzS-30">
          <mxGeometry relative="1" as="geometry" />
        </mxCell>
        <mxCell id="uQ55AVFSCv3QONQmOrzS-22" value="Billing Service" style="rounded=0;whiteSpace=wrap;html=1;" vertex="1" parent="1">
          <mxGeometry x="1160" y="-420" width="90" height="70" as="geometry" />
        </mxCell>
        <mxCell id="uQ55AVFSCv3QONQmOrzS-23" value="" style="shape=cylinder3;whiteSpace=wrap;html=1;boundedLbl=1;backgroundOutline=1;size=1.6543059172450398;" vertex="1" parent="1">
          <mxGeometry x="870" y="-370" width="10" height="10" as="geometry" />
        </mxCell>
        <mxCell id="uQ55AVFSCv3QONQmOrzS-24" value="Kunden&lt;br&gt;anlegen, updaten, lesen" style="edgeStyle=orthogonalEdgeStyle;rounded=0;orthogonalLoop=1;jettySize=auto;html=1;exitX=0.25;exitY=1;exitDx=0;exitDy=0;entryX=0.5;entryY=0;entryDx=0;entryDy=0;" edge="1" parent="1" source="uQ55AVFSCv3QONQmOrzS-17" target="uQ55AVFSCv3QONQmOrzS-19">
          <mxGeometry x="0.2" y="-5" relative="1" as="geometry">
            <mxPoint x="740" y="-385" as="sourcePoint" />
            <mxPoint x="630" y="-400" as="targetPoint" />
            <mxPoint as="offset" />
          </mxGeometry>
        </mxCell>
        <mxCell id="uQ55AVFSCv3QONQmOrzS-25" value="Verträge&lt;br&gt;anlegen, updaten, lesen" style="edgeStyle=orthogonalEdgeStyle;rounded=0;orthogonalLoop=1;jettySize=auto;html=1;exitX=0.5;exitY=1;exitDx=0;exitDy=0;entryX=0.5;entryY=0;entryDx=0;entryDy=0;" edge="1" parent="1" source="uQ55AVFSCv3QONQmOrzS-17" target="uQ55AVFSCv3QONQmOrzS-20">
          <mxGeometry relative="1" as="geometry">
            <mxPoint x="880" y="-470" as="sourcePoint" />
            <mxPoint x="865" y="-400" as="targetPoint" />
            <mxPoint as="offset" />
          </mxGeometry>
        </mxCell>
        <mxCell id="uQ55AVFSCv3QONQmOrzS-26" value="Buchungsliste abfragen" style="edgeStyle=orthogonalEdgeStyle;rounded=0;orthogonalLoop=1;jettySize=auto;html=1;exitX=0.81;exitY=0.985;exitDx=0;exitDy=0;entryX=0.5;entryY=0;entryDx=0;entryDy=0;exitPerimeter=0;" edge="1" parent="1" source="uQ55AVFSCv3QONQmOrzS-17" target="uQ55AVFSCv3QONQmOrzS-22">
          <mxGeometry x="0.3338" relative="1" as="geometry">
            <mxPoint x="960" y="-510" as="sourcePoint" />
            <mxPoint x="979" y="-400" as="targetPoint" />
            <mxPoint as="offset" />
          </mxGeometry>
        </mxCell>
        <mxCell id="uQ55AVFSCv3QONQmOrzS-27" value="KundeAngelegtEvent" style="edgeStyle=orthogonalEdgeStyle;rounded=0;orthogonalLoop=1;jettySize=auto;html=1;exitX=1;exitY=0.5;exitDx=0;exitDy=0;entryX=0;entryY=0.75;entryDx=0;entryDy=0;" edge="1" parent="1" source="uQ55AVFSCv3QONQmOrzS-19" target="uQ55AVFSCv3QONQmOrzS-20">
          <mxGeometry x="0.0476" y="-15" relative="1" as="geometry">
            <mxPoint x="1096" y="-510" as="sourcePoint" />
            <mxPoint x="1215" y="-390" as="targetPoint" />
            <mxPoint as="offset" />
          </mxGeometry>
        </mxCell>
        <mxCell id="uQ55AVFSCv3QONQmOrzS-28" value="Kundendaten" style="edgeStyle=orthogonalEdgeStyle;rounded=0;orthogonalLoop=1;jettySize=auto;html=1;exitX=0;exitY=0.5;exitDx=0;exitDy=0;entryX=1;entryY=0.5;entryDx=0;entryDy=0;" edge="1" parent="1" source="uQ55AVFSCv3QONQmOrzS-19" target="uQ55AVFSCv3QONQmOrzS-18">
          <mxGeometry x="0.0476" y="-15" relative="1" as="geometry">
            <mxPoint x="1005" y="-375" as="sourcePoint" />
            <mxPoint x="900" y="-375" as="targetPoint" />
            <mxPoint as="offset" />
          </mxGeometry>
        </mxCell>
        <mxCell id="uQ55AVFSCv3QONQmOrzS-29" value="Vertragsdaten" style="edgeStyle=orthogonalEdgeStyle;rounded=0;orthogonalLoop=1;jettySize=auto;html=1;exitX=0.5;exitY=1;exitDx=0;exitDy=0;entryX=0.5;entryY=1;entryDx=0;entryDy=0;" edge="1" parent="1" source="uQ55AVFSCv3QONQmOrzS-20" target="uQ55AVFSCv3QONQmOrzS-18">
          <mxGeometry x="0.0476" y="-15" relative="1" as="geometry">
            <mxPoint x="1005" y="-375" as="sourcePoint" />
            <mxPoint x="900" y="-375" as="targetPoint" />
            <mxPoint as="offset" />
            <Array as="points">
              <mxPoint x="1030" y="-310" />
              <mxPoint x="685" y="-310" />
            </Array>
          </mxGeometry>
        </mxCell>
        <mxCell id="uQ55AVFSCv3QONQmOrzS-30" value="" style="shape=cylinder3;whiteSpace=wrap;html=1;boundedLbl=1;backgroundOutline=1;size=1.6543059172450398;" vertex="1" parent="1">
          <mxGeometry x="1050" y="-370" width="10" height="10" as="geometry" />
        </mxCell>
        <mxCell id="uQ55AVFSCv3QONQmOrzS-31" value="" style="shape=cylinder3;whiteSpace=wrap;html=1;boundedLbl=1;backgroundOutline=1;size=1.6543059172450398;" vertex="1" parent="1">
          <mxGeometry x="1230" y="-370" width="10" height="10" as="geometry" />
        </mxCell>
        <mxCell id="uQ55AVFSCv3QONQmOrzS-32" value="VertragANgeegt Event" style="edgeStyle=orthogonalEdgeStyle;rounded=0;orthogonalLoop=1;jettySize=auto;html=1;exitX=1;exitY=0.5;exitDx=0;exitDy=0;entryX=0;entryY=0.75;entryDx=0;entryDy=0;" edge="1" parent="1" source="uQ55AVFSCv3QONQmOrzS-20" target="uQ55AVFSCv3QONQmOrzS-22">
          <mxGeometry x="0.0476" y="-15" relative="1" as="geometry">
            <mxPoint x="1040" y="-345" as="sourcePoint" />
            <mxPoint x="695" y="-360" as="targetPoint" />
            <mxPoint as="offset" />
            <Array as="points">
              <mxPoint x="1160" y="-385" />
            </Array>
          </mxGeometry>
        </mxCell>
        <mxCell id="uQ55AVFSCv3QONQmOrzS-33" value="Kundendaten" style="edgeStyle=orthogonalEdgeStyle;rounded=0;orthogonalLoop=1;jettySize=auto;html=1;exitX=0.5;exitY=1;exitDx=0;exitDy=0;entryX=1;entryY=1;entryDx=0;entryDy=0;" edge="1" parent="1" source="uQ55AVFSCv3QONQmOrzS-22" target="uQ55AVFSCv3QONQmOrzS-19">
          <mxGeometry x="0.0476" y="-15" relative="1" as="geometry">
            <mxPoint x="1005" y="-375" as="sourcePoint" />
            <mxPoint x="900" y="-375" as="targetPoint" />
            <mxPoint as="offset" />
            <Array as="points">
              <mxPoint x="1205" y="-280" />
              <mxPoint x="890" y="-280" />
            </Array>
          </mxGeometry>
        </mxCell>
        <mxCell id="uQ55AVFSCv3QONQmOrzS-34" value="&lt;b&gt;LEVEL 1 TECH EDA&lt;/b&gt;" style="text;html=1;strokeColor=none;fillColor=none;align=center;verticalAlign=middle;whiteSpace=wrap;rounded=0;" vertex="1" parent="1">
          <mxGeometry x="680" y="-595" width="60" height="30" as="geometry" />
        </mxCell>
      </root>
    </mxGraphModel>
  </diagram>
</mxfile>
